<?xml version="1.0" encoding="UTF-8"?> <svg xmlns="http://www.w3.org/2000/svg" width="129" height="46" viewBox="0 0 129 46" fill="none"><g id="Logo"><path id="Vector" d="M60.312 18.8069L61.539 15.833L63.5799 20.7765L62.3529 23.7504L60.312 18.8069ZM65.458 20.7765L67.4988 15.833L68.7258 18.8069L66.685 23.7504L65.458 20.7765ZM62.4781 13.5504L62.7786 12.8069L64.5189 8.60695L66.5598 13.5504L64.5189 18.4939L62.4781 13.5504ZM47.4159 1.9809H51.4976L58.4339 18.8069L56.3931 23.7504L47.4159 1.9809ZM57.7078 1.9809H61.7894L63.5924 6.3374L61.5516 11.2809L57.7078 1.9809ZM65.458 6.32436L67.2609 1.96786H71.3301L67.4988 11.2678L65.458 6.32436ZM70.5914 18.8069L77.5278 1.9809H81.6095L72.6322 23.7504L70.5914 18.8069ZM76.4009 0.180908L69.6649 16.5243L68.4379 13.5504L68.7509 12.8069L73.9594 0.180908H66.1216L64.5064 4.0548L62.8913 0.180908H55.1035L60.6125 13.5504L59.373 16.5243L52.6369 0.180908H44.7991L55.5918 26.333H57.2069L59.3605 21.0765L61.514 26.333H63.1291L64.4939 23.046L65.8461 26.333H67.4613L69.6148 21.0765L71.7683 26.333H73.3835L84.2012 0.180908H76.4009Z" fill="#EAE1D5"></path><path id="Vector_2" d="M76.6397 34.9323V34.4889C76.6271 34.4367 76.6772 34.3845 76.7273 34.3715C76.7398 34.3715 76.7398 34.3715 76.7523 34.3715H77.3784C77.8291 34.3193 78.2799 34.4889 78.5929 34.828C78.8934 35.3367 79.0186 35.9236 78.9685 36.5106C78.981 36.8628 78.9435 37.2019 78.8683 37.541C78.8182 37.7758 78.7306 38.0106 78.5804 38.2062C78.4551 38.3758 78.2799 38.4932 78.0921 38.5584C77.8542 38.6367 77.6163 38.6758 77.3784 38.6627H76.7523C76.7023 38.6758 76.6522 38.6236 76.6397 38.5714C76.6397 38.5584 76.6397 38.5584 76.6397 38.5454V34.9323ZM77.9042 40.9584L79.2314 45.4584C79.2565 45.5497 79.3441 45.6018 79.4318 45.5888H81.1471C81.2597 45.5888 81.2848 45.5236 81.2347 45.3931L79.6446 40.3323C79.7698 40.254 79.8825 40.1627 79.9952 40.0584C80.6212 39.4454 80.9342 38.4149 80.9342 36.9671C80.9342 36.8888 80.9342 36.8236 80.9342 36.7454C80.9342 36.6671 80.9342 36.6019 80.9342 36.5236C80.9467 35.8845 80.8716 35.2454 80.6963 34.6454C80.5586 34.1758 80.3207 33.7454 79.9952 33.4063C79.6822 33.0802 79.2815 32.8584 78.8558 32.728C78.3675 32.5845 77.8667 32.5063 77.3659 32.5193H74.8242C74.7365 32.5063 74.6489 32.5715 74.6364 32.6628C74.6364 32.6758 74.6364 32.6889 74.6364 32.715V45.4192C74.6239 45.5105 74.6865 45.6018 74.7741 45.6149C74.7866 45.6149 74.7991 45.6149 74.8242 45.6149H76.4393C76.527 45.6279 76.6146 45.5627 76.6272 45.4714C76.6272 45.4584 76.6272 45.4453 76.6272 45.4323V41.141C76.6146 41.0888 76.6647 41.0366 76.7148 41.0236C76.7273 41.0236 76.7273 41.0236 76.7398 41.0236H77.3659C77.5537 41.0236 77.7164 41.0236 77.9042 40.9845M28.8488 39.0149C28.8488 39.0932 28.8863 39.1323 28.9614 39.1323H29.5875C29.8254 39.1454 30.0758 39.1062 30.3011 39.028C30.4889 38.9627 30.6517 38.8323 30.7644 38.6758C30.9021 38.4801 31.0023 38.2584 31.0524 38.0106C31.1275 37.6714 31.1525 37.3323 31.1525 36.9801V36.5367C31.2026 35.9497 31.0774 35.3497 30.7769 34.8541C30.4639 34.5149 30.0132 34.3454 29.5624 34.3976H28.9489C28.8988 34.3845 28.8488 34.4367 28.8362 34.4889C28.8362 34.5019 28.8362 34.5019 28.8362 34.5149V39.0149H28.8488ZM26.8705 45.4062V32.715C26.858 32.6236 26.9206 32.5323 27.0082 32.5193C27.0208 32.5193 27.0333 32.5193 27.0583 32.5193H29.6C30.1008 32.5193 30.6142 32.5845 31.0899 32.728C31.5156 32.8584 31.9038 33.0932 32.2293 33.4063C32.5674 33.7584 32.8178 34.1889 32.943 34.6715C33.1183 35.2845 33.2059 35.9236 33.1809 36.5497C33.1809 36.628 33.1809 36.6932 33.1809 36.7715C33.1809 36.8497 33.1809 36.9149 33.1809 36.9932C33.1809 38.441 32.8679 39.4714 32.2418 40.0845C32.1291 40.1888 32.0165 40.2671 31.8913 40.3584L33.4814 45.4192C33.5314 45.5497 33.4814 45.6149 33.3937 45.6149H31.6534C31.5657 45.6149 31.4906 45.5627 31.453 45.4845L30.1259 40.9845C29.9506 40.9845 29.7878 41.0236 29.5875 41.0236H28.974C28.9239 41.0106 28.8738 41.0627 28.8613 41.1149C28.8613 41.128 28.8613 41.128 28.8613 41.141V45.4323C28.8738 45.5236 28.7987 45.6149 28.711 45.6279C28.6985 45.6279 28.686 45.6279 28.6735 45.6279H27.0458C26.9582 45.641 26.8705 45.5758 26.858 45.4845C26.858 45.4714 26.858 45.4584 26.858 45.4323M37.8385 36.1715H37.8886L38.9654 42.1584H36.6991L37.8385 36.1715ZM38.6523 32.5193H37.0998C36.9996 32.5193 36.937 32.5845 36.8995 32.715L34.2076 45.4062C34.2076 45.5366 34.2326 45.6018 34.3578 45.6018H35.9354C36.0355 45.6018 36.1357 45.5236 36.1357 45.4062L36.2359 44.8845L36.4237 43.8932H39.3535L39.6415 45.4062C39.654 45.5105 39.7416 45.6018 39.8418 45.6018H41.4194C41.5321 45.6018 41.5947 45.5366 41.5696 45.4062L38.8777 32.715C38.8777 32.6106 38.7775 32.5193 38.6774 32.5193M21.5242 39.1323C21.7746 39.1454 22.0125 39.1062 22.2504 39.028C22.4382 38.9627 22.6135 38.8323 22.7387 38.6758C22.8765 38.4801 22.9766 38.2584 23.0267 38.0106C23.0893 37.6714 23.1269 37.3323 23.1143 36.9801V36.5367C23.1644 35.9497 23.0392 35.3497 22.7387 34.8541C22.4257 34.5149 21.975 34.3454 21.5242 34.3976H20.8982C20.8481 34.3845 20.798 34.4367 20.7855 34.4889C20.7855 34.5019 20.7855 34.5019 20.7855 34.5149V39.0149C20.773 39.0671 20.8106 39.1193 20.8607 39.1323C20.8732 39.1323 20.8857 39.1323 20.8857 39.1323H21.5242ZM25.3806 45.4062C25.4307 45.5366 25.3806 45.6018 25.2804 45.6018H23.5651C23.4774 45.6018 23.4023 45.5497 23.3648 45.4714L22.0376 40.9714C21.8623 40.9714 21.6995 41.0106 21.4992 41.0106H20.8857C20.8356 40.9975 20.7855 41.0497 20.773 41.1019C20.773 41.1149 20.773 41.1149 20.773 41.128V45.4192C20.7855 45.5105 20.7104 45.6018 20.6228 45.6149C20.6102 45.6149 20.5977 45.6149 20.5852 45.6149H18.97C18.8824 45.6279 18.7948 45.5627 18.7822 45.4714C18.7822 45.4584 18.7822 45.4453 18.7822 45.4192V32.715C18.7697 32.6236 18.8323 32.5323 18.92 32.5193C18.9325 32.5193 18.945 32.5193 18.97 32.5193H21.5117C22.0251 32.5193 22.5259 32.5845 23.0142 32.728C23.4399 32.8584 23.828 33.0932 24.141 33.4063C24.4666 33.7584 24.717 34.2019 24.8422 34.6715C25.0175 35.2845 25.1051 35.9236 25.0801 36.5497C25.0801 36.628 25.0801 36.6932 25.0801 36.7715C25.0801 36.8497 25.0801 36.9149 25.0801 36.9932C25.0801 38.441 24.7671 39.4714 24.141 40.0845C24.0283 40.1888 23.9157 40.2671 23.7905 40.3584L25.3806 45.4062ZM107.328 32.5193H105.963C105.875 32.5063 105.787 32.5845 105.775 32.6758C105.775 32.6889 105.775 32.7019 105.775 32.715V41.754H105.687L103.359 32.715C103.333 32.5976 103.221 32.5193 103.096 32.5193H101.142C101.055 32.5063 100.967 32.5715 100.955 32.6628C100.955 32.6758 100.955 32.6889 100.955 32.7019V45.3931C100.942 45.4845 101.017 45.5758 101.105 45.5888C101.117 45.5888 101.13 45.5888 101.142 45.5888H102.507C102.595 45.6018 102.682 45.5366 102.695 45.4453C102.695 45.4323 102.695 45.4192 102.695 45.4062V36.3671H102.808L105.262 45.4062C105.287 45.5236 105.399 45.6149 105.525 45.6018H107.353C107.44 45.6149 107.528 45.5497 107.54 45.4584C107.54 45.4453 107.54 45.4323 107.54 45.4062V32.715C107.553 32.6236 107.49 32.5323 107.403 32.5193C107.365 32.5193 107.353 32.5193 107.328 32.5193ZM99.6149 32.715L97.6617 45.4062C97.6366 45.5366 97.574 45.6018 97.4739 45.6018H96.1091C96.0089 45.6018 95.9463 45.5366 95.9213 45.4062L94.6567 36.9671H94.6192L93.292 45.3931C93.2669 45.5236 93.2043 45.5888 93.1042 45.5888H91.7269C91.6268 45.5888 91.5642 45.5236 91.5391 45.3931L89.611 32.7019C89.611 32.5845 89.6485 32.5063 89.7737 32.5063H91.3889C91.489 32.4932 91.5892 32.5715 91.5892 32.6889V32.7019L92.4907 41.2193H92.5408L93.893 32.7019C93.893 32.5976 93.9681 32.5063 94.0808 32.5063C94.0933 32.5063 94.0933 32.5063 94.1058 32.5063H95.1826C95.2828 32.4932 95.3829 32.5715 95.3829 32.6889V32.7019L96.7351 41.2193H96.7852L97.7493 32.7019C97.7493 32.5976 97.8244 32.5193 97.9246 32.5063C97.9371 32.5063 97.9496 32.5063 97.9496 32.5063H99.4771C99.6149 32.5063 99.6649 32.5715 99.6399 32.7019M86.7312 41.141C86.7312 41.6497 86.7312 42.041 86.7312 42.3019C86.7312 42.5627 86.7312 42.7584 86.6937 42.8627L86.6311 43.1497C86.5685 43.3714 86.4307 43.554 86.2429 43.6845C86.0426 43.8279 85.8047 43.8932 85.5668 43.8932C85.3164 43.9062 85.0785 43.8279 84.8782 43.6845C84.6904 43.5671 84.5527 43.3714 84.49 43.1497C84.465 43.0584 84.4525 42.9671 84.4274 42.8627C84.4024 42.6801 84.3899 42.4845 84.3899 42.3019C84.3899 42.028 84.3899 41.6497 84.3899 41.141V36.9541C84.3899 36.4454 84.3899 36.0541 84.3899 35.7932C84.3899 35.6106 84.4149 35.4149 84.4274 35.2323L84.49 34.9454C84.5527 34.7236 84.6904 34.541 84.8782 34.4106C85.0785 34.2671 85.3289 34.2019 85.5668 34.2019C85.8047 34.2019 86.0426 34.2671 86.2429 34.4106C86.4307 34.528 86.5685 34.7236 86.6311 34.9454L86.6937 35.2323C86.6937 35.3367 86.6937 35.5193 86.7312 35.7932C86.7688 36.0671 86.7312 36.4454 86.7312 36.9541C86.7312 37.4628 86.7312 38.1541 86.7312 39.0541C86.7312 39.954 86.7312 40.6584 86.7312 41.1671M88.5217 43.7236C88.5717 43.5671 88.6093 43.4236 88.6344 43.2671C88.6719 43.0192 88.697 42.7845 88.7095 42.5366C88.7095 42.2106 88.7345 41.7801 88.747 41.2323C88.7596 40.6845 88.747 39.9671 88.747 39.0541C88.747 38.141 88.747 37.4236 88.747 36.8758C88.747 36.328 88.747 35.8975 88.7095 35.5715C88.697 35.3236 88.6719 35.0889 88.6344 34.841C88.6093 34.6845 88.5717 34.528 88.5217 34.3845C88.3339 33.7715 87.9582 33.2367 87.4449 32.8715C86.8815 32.4932 86.2179 32.3106 85.5418 32.3367C84.8657 32.3106 84.2021 32.4932 83.6261 32.8715C83.1128 33.2367 82.7372 33.7715 82.5494 34.3845C82.4993 34.541 82.4617 34.6845 82.4367 34.841C82.3991 35.0889 82.3741 35.3236 82.3616 35.5715C82.3616 35.8975 82.324 36.328 82.324 36.8758C82.324 37.4236 82.324 38.141 82.324 39.0541C82.324 39.9671 82.324 40.6845 82.324 41.2323C82.324 41.7801 82.324 42.2106 82.3616 42.5366C82.3741 42.7845 82.3991 43.0192 82.4367 43.2671C82.4617 43.4236 82.4993 43.5801 82.5494 43.7236C82.7372 44.3366 83.1128 44.8714 83.6261 45.2366C84.2021 45.6149 84.8657 45.7975 85.5418 45.7714C86.2179 45.7975 86.8815 45.6149 87.4449 45.2366C87.9457 44.8714 88.3339 44.3497 88.5217 43.7236ZM68.5514 45.2366C68.0756 44.8714 67.725 44.3497 67.5623 43.7627C67.5247 43.6323 67.4872 43.4758 67.4621 43.3192C67.4245 43.0714 67.3995 42.8236 67.387 42.5627C67.3619 42.2366 67.3494 41.7932 67.3369 41.2453C67.3244 40.6975 67.3244 39.9671 67.3369 39.0541C67.3369 38.141 67.3369 37.4106 67.3369 36.8628C67.3369 36.3149 67.3494 35.8715 67.387 35.5454C67.3995 35.2975 67.4245 35.0497 67.4621 34.8019C67.4621 34.6323 67.5247 34.4758 67.5623 34.3454C67.7376 33.7584 68.0756 33.2367 68.5514 32.8715C69.8035 32.0889 71.3936 32.1802 72.558 33.0932C73.1339 33.7454 73.4344 34.5932 73.4094 35.4802C73.4094 35.6236 73.4094 35.7019 73.2842 35.7149L71.7817 35.9888C71.644 35.9888 71.5814 35.9497 71.5814 35.8193C71.5939 35.3889 71.4812 34.9584 71.2558 34.5932C71.0555 34.3323 70.755 34.2019 70.4295 34.2149C70.1916 34.2019 69.9662 34.2671 69.7659 34.3976C69.5906 34.541 69.4779 34.7367 69.4278 34.9584C69.4028 35.0497 69.3778 35.141 69.3527 35.2454C69.3277 35.428 69.3151 35.6236 69.3151 35.8062C69.3151 36.0671 69.3151 36.4584 69.3151 36.9801C69.3151 37.5019 69.3151 38.1932 69.3151 39.0801C69.3151 39.9671 69.3151 40.6714 69.3151 41.1801C69.3151 41.6888 69.3151 42.0801 69.3151 42.354C69.3151 42.5366 69.3277 42.7323 69.3527 42.9149C69.3652 43.0062 69.3903 43.1106 69.4278 43.2019C69.4779 43.4236 69.6031 43.6192 69.7659 43.7627C69.9662 43.8932 70.1916 43.9584 70.4295 43.9453C70.7425 43.9714 71.0555 43.8279 71.2558 43.5671C71.4812 43.2019 71.5939 42.7845 71.5814 42.341C71.5814 42.1975 71.6565 42.1453 71.7817 42.1714L73.2842 42.4453C73.3968 42.4453 73.4344 42.5366 73.4094 42.6801C73.4219 43.5671 73.1089 44.4279 72.5204 45.0671C71.356 45.9801 69.7659 46.0714 68.5138 45.2888M60.3129 32.5454H58.6977C58.6101 32.5323 58.5224 32.5976 58.5099 32.6889C58.5099 32.7019 58.5099 32.715 58.5099 32.741V45.4062C58.4974 45.4975 58.56 45.5888 58.6477 45.6018C58.6602 45.6018 58.6727 45.6018 58.6977 45.6018H63.8562C63.9438 45.6149 64.0315 45.5497 64.044 45.4584C64.044 45.4453 64.044 45.4323 64.044 45.4062V43.9192C64.0565 43.8279 63.9939 43.7366 63.9063 43.7236C63.8938 43.7236 63.8812 43.7236 63.8562 43.7236H60.6134C60.5633 43.7366 60.5132 43.6845 60.5007 43.6323C60.5007 43.6192 60.5007 43.6192 60.5007 43.6062V32.7019C60.5132 32.6106 60.4381 32.5193 60.3504 32.5063C60.3379 32.5063 60.3254 32.5063 60.3129 32.5063M56.5818 32.715V42.2758C56.6569 43.2279 56.3564 44.1801 55.7554 44.8975C54.4282 46.0714 52.4875 46.0714 51.1604 44.8975C50.5469 44.1801 50.2464 43.2279 50.309 42.2758V32.715C50.2964 32.6236 50.359 32.5323 50.4467 32.5193C50.4592 32.5193 50.4717 32.5193 50.4968 32.5193H52.1119C52.1996 32.5063 52.2872 32.5715 52.2997 32.6628C52.2997 32.6758 52.2997 32.6889 52.2997 32.715V42.5497C52.2872 42.9019 52.3874 43.254 52.6127 43.541C52.8256 43.7888 53.1386 43.9323 53.4767 43.9192C53.8022 43.9453 54.1152 43.8019 54.3281 43.541C54.5409 43.254 54.6411 42.9019 54.6286 42.5497V32.715C54.616 32.6236 54.6786 32.5323 54.7663 32.5193C54.7788 32.5193 54.7913 32.5193 54.8164 32.5193H56.4315C56.5192 32.5063 56.6068 32.5845 56.6193 32.6758C56.5943 32.6889 56.5943 32.7019 56.5818 32.715ZM48.4058 43.7236C48.4559 43.5801 48.506 43.4236 48.5311 43.2671C48.5686 43.0323 48.5811 42.7845 48.5937 42.5497C48.5937 42.2236 48.6312 41.8062 48.6312 41.2584C48.6312 40.7236 48.6312 39.9932 48.6312 39.0801V38.5193C48.6437 38.428 48.5811 38.3367 48.4935 38.3236C48.481 38.3236 48.4684 38.3236 48.4434 38.3236H45.6513C45.5637 38.3106 45.476 38.3758 45.4635 38.4671C45.4635 38.4801 45.4635 38.4932 45.4635 38.5062V39.928C45.451 40.0193 45.5261 40.1106 45.6138 40.1236C45.6263 40.1236 45.6388 40.1236 45.6513 40.1236H46.6404C46.6905 40.1106 46.7531 40.1627 46.7531 40.2149C46.7531 40.228 46.7531 40.228 46.7531 40.241C46.7531 40.841 46.7531 41.3236 46.7531 41.6758C46.7531 42.0279 46.7531 42.3019 46.7531 42.4975C46.7531 42.641 46.7406 42.7845 46.7156 42.9279C46.7031 43.0062 46.678 43.0975 46.653 43.1758C46.5904 43.3975 46.4401 43.5932 46.2398 43.7106C46.0144 43.854 45.764 43.9192 45.5136 43.9192C45.2632 43.9192 45.0128 43.841 44.8124 43.6975C44.6121 43.5801 44.4744 43.3975 44.3993 43.1627C44.3993 43.0714 44.3492 42.9801 44.3367 42.8758C44.3242 42.7714 44.2991 42.5888 44.2866 42.3149C44.2741 42.041 44.2866 41.6627 44.2866 41.154V36.9541C44.2866 36.4454 44.2866 36.0541 44.2866 35.7932C44.2866 35.5193 44.3242 35.3367 44.3367 35.2323C44.3492 35.128 44.3742 35.0367 44.3993 34.9454C44.4619 34.7236 44.5996 34.541 44.7874 34.4106C45.0003 34.2671 45.2507 34.2019 45.4886 34.2019C46.2273 34.2019 46.653 34.7106 46.7531 35.741C46.7531 35.8715 46.8408 35.9236 46.9535 35.8975L48.4434 35.6236C48.531 35.6236 48.6062 35.5454 48.6062 35.4541C48.6062 35.441 48.6062 35.4149 48.5937 35.4019C48.5686 34.541 48.2306 33.7062 47.6421 33.0932C47.0411 32.5715 46.2648 32.2976 45.4886 32.3367C44.8124 32.3106 44.1489 32.4932 43.5729 32.8715C43.0596 33.2367 42.684 33.7715 42.4961 34.3845C42.4461 34.528 42.4085 34.6845 42.3835 34.841C42.3459 35.0889 42.3209 35.3236 42.3083 35.5715C42.3083 35.8975 42.2708 36.328 42.2708 36.8758C42.2708 37.4236 42.2708 38.141 42.2708 39.0541C42.2708 39.9671 42.2708 40.6845 42.2708 41.2323C42.2708 41.7801 42.2708 42.2106 42.3083 42.5366C42.3209 42.7845 42.3459 43.0323 42.3835 43.2671C42.4085 43.4236 42.4461 43.5801 42.4961 43.7236C42.684 44.3366 43.0596 44.8714 43.5729 45.2366C44.1489 45.6149 44.8124 45.7975 45.4886 45.7714C46.1647 45.7975 46.8283 45.6149 47.3917 45.2366C47.905 44.8714 48.2806 44.3366 48.4684 43.7236M12.86 42.1584H15.1513L14.0745 36.1715H14.0244L12.86 42.1584ZM10.2683 45.4062L12.9602 32.715C12.9977 32.5976 13.0604 32.5193 13.1605 32.5193H14.7131C14.8132 32.5193 14.9009 32.5976 14.9134 32.715L17.5677 45.4062C17.5928 45.5366 17.5677 45.6018 17.4175 45.6018H15.8524C15.7523 45.6018 15.6646 45.5236 15.6521 45.4192L15.3641 43.9062H12.4093L12.2215 44.8975L12.1213 45.4192C12.1088 45.5236 12.0211 45.6149 11.921 45.6149H10.381C10.2683 45.6149 10.2057 45.5497 10.2307 45.4192M9.89266 32.5193H8.36515C8.26499 32.5063 8.17734 32.5845 8.16482 32.6758C8.16482 32.6889 8.16482 32.7019 8.16482 32.7019L7.20074 41.2193H7.15066L5.79844 32.7019C5.79844 32.5976 5.71079 32.5063 5.61063 32.5063H5.59811H4.50882C4.40866 32.4932 4.32101 32.5715 4.30849 32.6758C4.30849 32.6889 4.30849 32.6889 4.30849 32.7019L2.94375 41.2193H2.88115L1.97967 32.7019C1.97967 32.5976 1.89203 32.5063 1.79186 32.5063H1.77934H0.189235C0.0515086 32.5063 0.00142604 32.5715 0.0264671 32.7019L1.96715 45.3931C1.96715 45.5236 2.0548 45.5888 2.15496 45.5888H3.53222C3.63238 45.5888 3.69499 45.5236 3.72003 45.3931L5.04721 36.9671H5.08477L6.36186 45.3931C6.36186 45.5236 6.44951 45.5888 6.54967 45.5888H7.91441C8.01457 45.5888 8.07718 45.5236 8.10222 45.3931L10.0554 32.7019C10.0805 32.5845 10.0179 32.5193 9.89266 32.5193Z" fill="#EAE1D5"></path><path id="Vector_3" d="M110.347 32.5404H108.731C108.644 32.5273 108.556 32.5926 108.544 32.6839C108.544 32.6969 108.544 32.71 108.544 32.736V45.4273C108.531 45.5186 108.594 45.6099 108.681 45.6229C108.694 45.6229 108.706 45.6229 108.731 45.6229H113.89C113.978 45.636 114.065 45.5708 114.078 45.4795C114.078 45.4664 114.078 45.4534 114.078 45.4273V43.9403C114.09 43.849 114.015 43.7577 113.927 43.7447C113.915 43.7447 113.902 43.7447 113.89 43.7447H110.647C110.597 43.7577 110.547 43.7055 110.534 43.6534C110.534 43.6403 110.534 43.6403 110.534 43.6273V32.723C110.547 32.6317 110.472 32.5404 110.384 32.5273C110.384 32.5404 110.372 32.5404 110.347 32.5404Z" fill="#EAE1D5"></path><path id="Vector_4" d="M117.184 34.4131H120.427C120.515 34.4262 120.602 34.3609 120.615 34.2696C120.615 34.2566 120.615 34.2436 120.615 34.2175V32.7305C120.627 32.6392 120.565 32.5479 120.477 32.5349C120.465 32.5349 120.452 32.5349 120.427 32.5349H115.269C115.181 32.5218 115.093 32.587 115.081 32.6783C115.081 32.6914 115.081 32.7044 115.081 32.7305V45.4218C115.068 45.5131 115.131 45.6044 115.218 45.6174C115.231 45.6174 115.243 45.6174 115.269 45.6174H120.427C120.515 45.6304 120.602 45.5652 120.615 45.4739C120.615 45.4609 120.615 45.4478 120.615 45.4218V43.9348C120.627 43.8435 120.565 43.7522 120.477 43.7392C120.465 43.7392 120.452 43.7392 120.427 43.7392H117.184C117.134 43.7522 117.084 43.7 117.071 43.6479C117.071 43.6348 117.071 43.6348 117.071 43.6218V40.0479C117.059 39.9957 117.097 39.9435 117.147 39.9305C117.159 39.9305 117.172 39.9305 117.172 39.9305H120.414C120.502 39.9435 120.59 39.8783 120.602 39.787C120.602 39.774 120.602 39.7609 120.602 39.7348V38.3914C120.615 38.3001 120.552 38.2088 120.465 38.1957C120.452 38.1957 120.439 38.1957 120.414 38.1957H117.172C117.122 38.2088 117.071 38.1696 117.059 38.1044C117.059 38.0914 117.059 38.0783 117.059 38.0783V34.5044C117.046 34.4522 117.097 34.4001 117.147 34.387C117.159 34.4131 117.172 34.4131 117.184 34.4131Z" fill="#EAE1D5"></path><path id="Vector_5" d="M125.256 36.1868H125.306L126.382 42.1737H124.091L125.256 36.1868ZM126.069 32.5347H124.517C124.417 32.5347 124.354 32.5999 124.317 32.7303L121.625 45.4216C121.6 45.552 121.625 45.6172 121.775 45.6172H123.353C123.453 45.6172 123.553 45.539 123.553 45.4216L123.653 44.8998L123.841 43.9085H126.771L127.059 45.4216C127.059 45.5259 127.146 45.6172 127.246 45.6172H128.824C128.937 45.6172 128.999 45.552 128.974 45.4216L126.257 32.7303C126.245 32.6129 126.157 32.5347 126.069 32.5347Z" fill="#EAE1D5"></path></g></svg> 